<?xml version="1.0" encoding="UTF-8"?>
<svg version="1.1" xmlns="http://www.w3.org/2000/svg" width="128" height="128">
<path d="M0 0 C0 4.62 0 9.24 0 14 C2.57161458 13.70703125 5.14322917 13.4140625 7.71484375 13.12109375 C8.46894531 13.08113281 9.22304687 13.04117187 10 13 C11 14 11 14 11.09765625 16.72265625 C11.08605469 17.82480469 11.07445313 18.92695313 11.0625 20.0625 C11.05347656 21.16722656 11.04445313 22.27195312 11.03515625 23.41015625 C11.02355469 24.26480469 11.01195313 25.11945312 11 26 C12.134375 26.144375 13.26875 26.28875 14.4375 26.4375 C18 27 18 27 19 28 C19.14115161 30.67058851 19.04247107 33.32432238 19 36 C19.94875 35.95875 20.8975 35.9175 21.875 35.875 C25 36 25 36 27 38 C27.20350291 40.5184095 27.28322922 42.92733484 27.2746582 45.44726562 C27.27976913 46.21487717 27.28488007 46.98248871 27.29014587 47.77336121 C27.30407774 50.31773616 27.30308261 52.86184138 27.30078125 55.40625 C27.30466589 57.16980084 27.30900007 58.93335074 27.31376648 60.69689941 C27.32123619 64.39578279 27.32093176 68.09457073 27.31567383 71.79345703 C27.3098747 76.54192224 27.32681712 81.28999797 27.3500185 86.03839874 C27.36472341 89.68087054 27.36563205 93.3232478 27.36250877 96.96574402 C27.36302351 98.71690137 27.36828962 100.46806381 27.37832069 102.2191925 C27.39060692 104.6639669 27.38394143 107.10797302 27.37231445 109.55273438 C27.37995819 110.28111008 27.38760193 111.00948578 27.39547729 111.75993347 C27.3742218 113.77380371 27.3742218 113.77380371 27 117 C23.79251482 119.13832345 22.92144072 119.25745882 19.22827148 119.29052734 C17.77547035 119.3096669 17.77547035 119.3096669 16.2933197 119.32919312 C15.24648514 119.33141876 14.19965057 119.33364441 13.12109375 119.3359375 C12.03925308 119.3425943 10.95741241 119.3492511 9.8427887 119.35610962 C7.54877422 119.36624455 5.2547302 119.37092638 2.96069336 119.37060547 C-0.52475765 119.37495292 -4.0089159 119.41119363 -7.49414062 119.44921875 C-9.72655819 119.45509208 -11.95898175 119.45905802 -14.19140625 119.4609375 C-15.2240712 119.47530853 -16.25673615 119.48967957 -17.32069397 119.50448608 C-23.56641453 119.46568983 -28.25185961 118.49956279 -33.90415955 115.79776001 C-36.15779694 114.73083922 -36.15779694 114.73083922 -39.3125 115.625 C-40.199375 116.07875 -41.08625 116.5325 -42 117 C-45.55077479 118.62130048 -48.30367999 119.25178747 -52.20166016 119.25878906 C-53.21265778 119.26509338 -54.2236554 119.27139771 -55.26528931 119.27789307 C-56.34563446 119.2738446 -57.42597961 119.26979614 -58.5390625 119.265625 C-59.65687103 119.26753845 -60.77467957 119.2694519 -61.92636108 119.27142334 C-64.28489406 119.27278236 -66.64343459 119.26910573 -69.00195312 119.26074219 C-72.61865948 119.2500188 -76.23487137 119.26065767 -79.8515625 119.2734375 C-82.14323027 119.27211625 -84.43489772 119.26955457 -86.7265625 119.265625 C-88.35315292 119.27169769 -88.35315292 119.27169769 -90.01260376 119.27789307 C-91.51964371 119.26843658 -91.51964371 119.26843658 -93.05712891 119.25878906 C-93.94139557 119.25719788 -94.82566223 119.25560669 -95.73672485 119.25396729 C-98 119 -98 119 -101 117 C-101.29717756 114.43800835 -101.39922375 112.11693528 -101.37231445 109.55273438 C-101.37596512 108.78512283 -101.37961578 108.01751129 -101.38337708 107.22663879 C-101.39150182 104.68211944 -101.37785693 102.13823309 -101.36328125 99.59375 C-101.36276287 97.8302002 -101.36327971 96.06664981 -101.36479187 94.30310059 C-101.36470206 90.60416049 -101.35425498 86.90543795 -101.33618164 83.20654297 C-101.31349412 78.45813612 -101.31294941 73.71004738 -101.31969929 68.96160126 C-101.32303607 65.31912392 -101.31641468 61.6767195 -101.30657005 58.03425598 C-101.30271274 56.28311036 -101.30157203 54.53195664 -101.3031559 52.7808075 C-101.30352554 50.33613551 -101.29093497 47.89187585 -101.2746582 45.44726562 C-101.27713562 44.71888992 -101.27961304 43.99051422 -101.28216553 43.24006653 C-101.22874167 38.22874167 -101.22874167 38.22874167 -99 36 C-95.875 35.875 -95.875 35.875 -93 36 C-93.061875 34.72125 -93.12375 33.4425 -93.1875 32.125 C-93.29296875 29.9453125 -93.29296875 29.9453125 -93 28 C-90 26 -90 26 -85 26 C-85 22.04 -85 18.08 -85 14 C-79.72686764 11.36343382 -71.85272248 13.51562811 -66.4140625 14.9375 C-55.44965491 18.61650652 -46.51235618 24.2442977 -38 32 C-37.38253906 31.17757812 -36.76507813 30.35515625 -36.12890625 29.5078125 C-11.62659746 -2.90664936 -11.62659746 -2.90664936 0 0 Z M-18.49951172 15.49365234 C-19.97870985 17.08917528 -21.40551765 18.71552639 -22.8125 20.375 C-23.24353027 20.87926514 -23.67456055 21.38353027 -24.11865234 21.90307617 C-25.47674561 23.56132209 -26.73523699 25.26936118 -28 27 C-28.51029251 27.66471313 -29.02058502 28.32942627 -29.54634094 29.01428223 C-34.66428081 36.41495209 -34.79475731 42.99354685 -34.5859375 51.7578125 C-34.57472082 53.15597699 -34.56619234 54.55416537 -34.56021118 55.95236206 C-34.53750571 59.59927637 -34.47874913 63.24471398 -34.4119873 66.89105225 C-34.35016326 70.62508171 -34.32311149 74.35935421 -34.29296875 78.09375 C-34.22898063 85.39650026 -34.12683302 92.69804178 -34 100 C-30.68441225 96.73183139 -27.75097313 93.4579299 -24.9375 89.75 C-19.77620045 83.34825367 -12.95049189 76.65016396 -5 74 C-5 51.56 -5 29.12 -5 6 C-9.41478409 6 -15.40215427 12.40839789 -18.49951172 15.49365234 Z M-80 18 C-80 40.77 -80 63.54 -80 87 C-74.72 87.99 -69.44 88.98 -64 90 C-60.89317536 91.19044179 -58.33684077 92.2319252 -55.5 93.8125 C-54.51084595 94.33263672 -54.51084595 94.33263672 -53.50170898 94.86328125 C-48.63713658 97.48113943 -44.2827496 100.50387788 -40 104 C-39.67 104 -39.34 104 -39 104 C-38.72075533 95.56788735 -38.50816313 87.13773446 -38.37825394 78.70212746 C-38.31586859 74.78395862 -38.23142887 70.86897297 -38.09472656 66.95263672 C-37.96338343 63.16570734 -37.89240673 59.38181744 -37.86147308 55.59278488 C-37.83946261 54.15478019 -37.79647175 52.71692445 -37.73123932 51.28023148 C-37.26815287 43.45016882 -37.26815287 43.45016882 -40.17366028 36.40723228 C-43.39587666 33.05524397 -47.08037014 30.49303528 -51 28 C-51.69047424 27.5489238 -52.38094849 27.0978476 -53.09234619 26.63310242 C-60.99460608 21.876339 -70.67127966 18 -80 18 Z M0 19 C-0.33 38.14 -0.66 57.28 -1 77 C-4.96 78.98 -4.96 78.98 -9 81 C-14.65012702 85.34625155 -19.6565024 90.35345312 -24 96 C-21.35404862 94.94746685 -18.71649763 93.88127149 -16.08984375 92.78125 C-15.04957031 92.3584375 -14.00929688 91.935625 -12.9375 91.5 C-11.91527344 91.0771875 -10.89304687 90.654375 -9.83984375 90.21875 C-4.7044511 88.58879831 0.68545086 87.88575819 6 87 C6 64.23 6 41.46 6 18 C2.94729537 17.84188612 2.94729537 17.84188612 0 19 Z M-88 31 C-88 53.44 -88 75.88 -88 99 C-85.36 98.67 -82.72 98.34 -80 98 C-72.27858025 97.68672044 -64.66332323 98.03127291 -57 99 C-60.02761623 96.49488018 -62.84648064 95.13181614 -66.5625 93.875 C-67.51253906 93.54242188 -68.46257812 93.20984375 -69.44140625 92.8671875 C-74.19491449 91.70881337 -79.12747901 91.44295645 -84 91 C-84.33 71.2 -84.66 51.4 -85 31 C-85.99 31 -86.98 31 -88 31 Z M11 31 C10.67 50.8 10.34 70.6 10 91 C2.575 91.99 2.575 91.99 -5 93 C-9.16129244 94.57454309 -13.04091211 96.06837797 -17 98 C-13.89951643 99.03349452 -12.41269632 98.77301511 -9.28515625 98.26171875 C-1.46627429 97.36622287 6.22299637 98.02787455 14 99 C14 76.56 14 54.12 14 31 C13.01 31 12.02 31 11 31 Z M-96 41 C-96 65.09 -96 89.18 -96 114 C-84.305625 114.0928125 -84.305625 114.0928125 -72.375 114.1875 C-69.92368652 114.21481201 -67.47237305 114.24212402 -64.94677734 114.27026367 C-62.99316907 114.27902956 -61.0395553 114.28667326 -59.0859375 114.29296875 C-58.08022705 114.30831665 -57.0745166 114.32366455 -56.03833008 114.33947754 C-50.57124441 114.34151294 -46.74892314 114.04986397 -42 111 C-42.99 110.34 -43.98 109.68 -45 109 C-45.99 109.495 -45.99 109.495 -47 110 C-48.45037107 110.08949417 -49.90478629 110.1175844 -51.35791016 110.11352539 C-52.2712915 110.11340454 -53.18467285 110.11328369 -54.12573242 110.11315918 C-55.08713135 110.10804321 -56.04853027 110.10292725 -57.0390625 110.09765625 C-57.92166748 110.09664917 -58.80427246 110.09564209 -59.71362305 110.09460449 C-63.01742854 110.08936395 -66.32121555 110.07540273 -69.625 110.0625 C-77.00875 110.041875 -84.3925 110.02125 -92 110 C-92.33 87.23 -92.66 64.46 -93 41 C-93.99 41 -94.98 41 -96 41 Z M19 41 C19 64.1 19 87.2 19 111 C11.471875 110.855625 3.94375 110.71125 -3.8125 110.5625 C-6.18671143 110.51939697 -8.56092285 110.47629395 -11.00708008 110.43188477 C-12.88623804 110.39376333 -14.765389 110.35529432 -16.64453125 110.31640625 C-17.62240601 110.29993042 -18.60028076 110.28345459 -19.60778809 110.26647949 C-20.54135132 110.24629761 -21.47491455 110.22611572 -22.43676758 110.20532227 C-23.2472908 110.18977798 -24.05781403 110.1742337 -24.89289856 110.15821838 C-27 110 -27 110 -30 109 C-30.99 109.99 -30.99 109.99 -32 111 C-25.91458915 114.20343121 -20.83952532 114.39964137 -14.03515625 114.29296875 C-13.11827026 114.28994751 -12.20138428 114.28692627 -11.25671387 114.28381348 C-7.85852672 114.2682145 -4.46050108 114.22633103 -1.0625 114.1875 C6.548125 114.125625 14.15875 114.06375 22 114 C22 89.91 22 65.82 22 41 C21.01 41 20.02 41 19 41 Z M-88 104 C-88 104.66 -88 105.32 -88 106 C-76.78 106 -65.56 106 -54 106 C-63.49827379 99.66781748 -77.50011468 101.24593172 -88 104 Z M-20 105 C-20 105.33 -20 105.66 -20 106 C-8.78 106 2.44 106 14 106 C14 105.34 14 104.68 14 104 C1.97347552 100.84550178 -7.98064647 102.05218775 -20 105 Z " fill="#4F8DF4" transform="translate(101,5)"/>
<path d="M0 0 C6.99729825 0 12.03533287 1.64249868 18.1875 4.75 C19.18426758 5.25273438 19.18426758 5.25273438 20.20117188 5.765625 C24.76320328 8.15763352 29.02062506 10.71740277 33 14 C33 15.32 33 16.64 33 18 C32.01 18.33 31.02 18.66 30 19 C27.6875 17.7421875 27.6875 17.7421875 25 15.875 C17.15998478 10.67594103 8.82746066 7.16456137 0 4 C0 2.68 0 1.36 0 0 Z " fill="#4698F4" transform="translate(26,37)"/>
<path d="M0 0 C10.9117625 -1.26880959 20.93939912 5.22767273 29.734375 10.9375 C32.32107292 13.29228707 32.73792968 14.56926123 33 18 C28.65358312 18.39025926 26.86300433 17.51326889 23.5 14.8125 C17.75826015 10.55999702 11.69595965 8.34314709 5 6 C3.32977242 5.34230551 1.66174992 4.67882945 0 4 C0 2.68 0 1.36 0 0 Z " fill="#4F8DF4" transform="translate(26,54)"/>
<path d="M0 0 C11.26886514 -1.31033316 22.20993162 5.64361176 31 12 C33 14 33 14 33 18 C28.79173602 17.78419159 26.23024261 16.63350568 22.875 14.25 C15.92119897 9.35527711 8.03638204 6.61926526 0 4 C0 2.68 0 1.36 0 0 Z " fill="#5B7DF4" transform="translate(26,73)"/>
</svg>
